HIERARCHY
ROOT Hips
{
	OFFSET 0.000000 0.000000 0.000000 
	CHANNELS 6 Xposition Yposition Zposition Zrotation Yrotation Xrotation
	JOINT LeftUpLeg
	{
		OFFSET 1.363060 -1.794630 0.839290 
		CHANNELS 3 Zrotation Yrotation Xrotation
		JOINT LeftLeg
		{
			OFFSET 2.448110 -6.726130 0.000000 
			CHANNELS 3 Zrotation Yrotation Xrotation
			JOINT LeftFoot
			{
				OFFSET 2.562200 -7.039590 0.000000 
				CHANNELS 3 Zrotation Yrotation Xrotation
				JOINT LeftToeBase
				{
					OFFSET 0.157640 -0.433110 2.322550 
					CHANNELS 3 Zrotation Yrotation Xrotation
					End Site
					{
						OFFSET 0.000000 0.000000 0.000000 
					}
				}
			}
		}
	}
	JOINT RightUpLeg
	{
		OFFSET -1.305520 -1.794630 0.839290 
		CHANNELS 3 Zrotation Yrotation Xrotation
		JOINT RightLeg
		{
			OFFSET -2.542530 -6.985550 0.000000 
			CHANNELS 3 Zrotation Yrotation Xrotation
			JOINT RightFoot
			{
				OFFSET -2.568260 -7.056230 0.000000 
				CHANNELS 3 Zrotation Yrotation Xrotation
				JOINT RightToeBase
				{
					OFFSET -0.164730 -0.452590 2.363150 
					CHANNELS 3 Zrotation Yrotation Xrotation
					End Site
					{
						OFFSET 0.000000 0.000000 0.000000 
					}
				}
			}
		}
	}
	JOINT Spine
	{
		OFFSET 0.028270 2.035590 -0.193380 
		CHANNELS 3 Zrotation Yrotation Xrotation
		JOINT Spine1
		{
			OFFSET 0.056720 2.048850 -0.042750 
			CHANNELS 3 Zrotation Yrotation Xrotation
			JOINT Neck1
			{
				OFFSET -0.054170 1.746240 0.172020 
				CHANNELS 3 Zrotation Yrotation Xrotation
				JOINT Head
				{
					OFFSET 0.104070 1.761360 -0.123970 
					CHANNELS 3 Zrotation Yrotation Xrotation
					End Site
					{
						OFFSET 0.000000 0.000000 0.000000 
					}
				}
			}
			JOINT LeftArm
			{
				OFFSET 3.362410 1.200890 -0.311210 
				CHANNELS 3 Zrotation Yrotation Xrotation
				JOINT LeftForeArm
				{
					OFFSET 4.983000 -0.000000 -0.000000 
					CHANNELS 3 Zrotation Yrotation Xrotation
					JOINT LeftHand
					{
						OFFSET 3.483560 -0.000000 -0.000000 
						CHANNELS 3 Zrotation Yrotation Xrotation
						JOINT LeftHandIndex1
						{
							OFFSET 0.715260 -0.000000 -0.000000 
							CHANNELS 3 Zrotation Yrotation Xrotation
							End Site
							{
								OFFSET 0.000000 0.000000 0.000000 
							}
						}
					}
				}
			}
			JOINT RightArm
			{
				OFFSET -3.136600 1.374050 -0.404650 
				CHANNELS 3 Zrotation Yrotation Xrotation
				JOINT RightForeArm
				{
					OFFSET -5.241900 -0.000000 -0.000000 
					CHANNELS 3 Zrotation Yrotation Xrotation
					JOINT RightHand
					{
						OFFSET -3.444170 -0.000000 -0.000000 
						CHANNELS 3 Zrotation Yrotation Xrotation
						JOINT RightHandIndex1
						{
							OFFSET -0.622530 -0.000000 -0.000000 
							CHANNELS 3 Zrotation Yrotation Xrotation
							End Site
							{
								OFFSET 0.000000 0.000000 0.000000 
							}
						}
					}
				}
			}
		}
	}
}
MOTION
Frames: 12
Frame Time: 0.041667
5.393122 17.840840 -4.953021 15.817197 45.982714 30.010815 -28.642864 -4.991953 -29.686486 -0.343208 6.716685 20.903006 1.299663 -7.278118 6.545011 0.205100 -2.915800 -8.044400 5.710273 2.694191 -38.591791 -4.045362 -13.366124 39.596290 -1.321479 4.673037 -5.952999 -0.696000 -5.332900 14.860500 7.891743 9.927680 7.028932 5.369715 5.391012 -0.776088 13.048202 -24.478861 15.140703 2.530700 -10.151000 11.923000 -74.693123 -34.806322 48.749351 137.228425 -50.881855 -99.938179 0.403831 -0.432026 -32.202599 -7.125000 0.000000 0.000000 45.075094 48.662317 14.532841 -18.220424 22.073734 -5.043211 -0.849040 -1.973825 38.268547 7.125000 0.000000 0.000000 
5.357898 17.858150 -4.936516 16.019656 46.348565 30.304802 -28.351327 -5.330271 -29.440913 -0.420574 6.541140 20.414894 1.311355 -7.375459 7.080153 0.116700 -2.202100 -6.064600 5.800716 2.642967 -38.607246 -3.997479 -13.317315 39.413992 -1.283493 4.399951 -6.107140 -0.720100 -5.422700 15.118100 7.858891 9.878596 6.924937 5.333714 5.355500 -0.827870 13.080569 -24.487667 15.188168 2.545800 -10.148000 11.929300 -75.001892 -34.853367 48.948632 136.301989 -51.391659 -99.263183 0.398226 -0.444607 -33.132296 -7.125000 0.000000 0.000000 45.485541 47.359969 13.051927 -18.792058 22.923392 -5.330872 -0.887801 -1.886696 40.084811 7.125000 0.000000 0.000000 
5.324284 17.872139 -4.919910 16.218349 46.660534 30.655058 -28.191718 -5.431580 -29.388371 -0.491407 6.384075 19.967483 1.346724 -7.640908 7.424285 0.093800 -1.975400 -5.437600 5.891748 2.605409 -38.680869 -3.952723 -13.273362 39.244118 -1.239170 4.080030 -6.317942 -0.720900 -5.425400 15.126000 7.880217 9.721321 6.885969 5.462449 5.274802 -0.803370 13.086615 -24.397444 15.407410 2.570200 -10.092100 12.049800 -75.272374 -34.868083 48.782482 135.385534 -51.873235 -98.602941 0.393344 -0.466771 -34.034018 -7.125000 0.000000 0.000000 44.982382 46.073786 12.554172 -19.327153 23.788596 -5.598750 -0.814272 -1.816197 39.319850 7.125000 0.000000 0.000000 
5.290972 17.878479 -4.900185 16.328721 46.955354 30.933219 -27.987992 -5.423657 -29.401302 -0.551062 6.257112 19.598990 1.393488 -7.982007 7.656702 0.115400 -2.190300 -6.031900 6.045464 2.573116 -38.746763 -3.911629 -13.230488 39.090440 -1.205295 3.818413 -6.552746 -0.739200 -5.492400 15.318400 7.878029 9.555283 6.877672 5.561331 5.177395 -0.703148 13.273955 -24.350016 15.501244 2.645100 -10.043600 12.185300 -75.459954 -35.026134 48.576951 134.505373 -52.318121 -97.968578 0.386120 -0.485446 -35.067931 -7.125000 0.000000 0.000000 45.403929 44.825309 12.336104 -20.137770 24.862619 -5.994344 -0.730891 -1.746491 38.632985 7.125000 0.000000 0.000000 
5.256754 17.881297 -4.878044 16.495386 47.287672 31.177445 -27.837253 -5.306783 -29.384049 -0.605274 6.135548 19.248263 1.442967 -8.344395 7.627297 0.166300 -2.627400 -7.243000 6.184532 2.510178 -38.747115 -3.876196 -13.190908 38.955187 -1.177804 3.578275 -6.827179 -0.736000 -5.481000 15.285700 7.811047 9.411718 6.759716 5.467422 5.104772 -0.832568 13.555835 -24.277071 15.439484 2.783700 -10.007100 12.188600 -75.501094 -34.920257 48.559394 133.709009 -52.698596 -97.396270 0.387702 -0.512700 -35.957174 -7.125000 0.000000 0.000000 44.774579 43.228503 12.695507 -20.763923 25.850460 -6.333830 -0.551269 -1.699129 36.144369 7.125000 0.000000 0.000000 
5.223643 17.885222 -4.860331 16.666613 47.730690 31.490900 -27.647807 -5.291543 -29.375665 -0.661245 6.007103 18.866852 1.483025 -8.615011 7.324004 0.282700 -3.419300 -9.448500 6.368423 2.363647 -38.833250 -3.842005 -13.155413 38.827251 -1.158331 3.383479 -7.099541 -0.746700 -5.519600 15.396600 7.653218 9.276006 6.559980 5.190004 5.025510 -0.960109 13.589601 -24.295899 15.559686 2.802800 -10.000000 12.236800 -75.417450 -34.743651 48.827057 133.131616 -52.973367 -96.975556 0.395250 -0.534894 -36.617222 -7.125000 0.000000 0.000000 46.221703 41.808722 12.061173 -21.793113 27.081713 -6.896368 -0.522546 -1.642538 36.691534 7.125000 0.000000 0.000000 
5.192948 17.892871 -4.842921 16.931152 48.185220 31.841582 -27.470900 -5.378576 -29.234024 -0.709205 5.882342 18.503628 1.527450 -8.902229 6.639712 0.524500 -4.641400 -12.888700 6.478153 2.216920 -38.857304 -3.805233 -13.116688 38.683781 -1.142364 3.206044 -7.362038 -0.782300 -5.646800 15.763000 7.542335 9.101664 6.422031 5.051668 4.928958 -1.022357 13.558153 -24.274524 15.577759 2.797500 -9.990400 12.217600 -75.392513 -34.609679 49.035979 132.769513 -53.142308 -96.710700 0.396146 -0.546236 -37.317359 -7.125000 0.000000 0.000000 47.405481 40.319912 11.307213 -22.973768 28.477035 -7.565387 -0.511872 -1.556284 37.642014 7.125000 0.000000 0.000000 
5.160240 17.899211 -4.820578 17.324548 48.555973 32.265106 -27.362883 -5.495153 -29.026587 -0.748602 5.766892 18.173212 1.581052 -9.236835 5.770272 0.737800 -5.487500 -15.304300 6.441743 2.205341 -38.809241 -3.767198 -13.076637 38.526859 -1.125411 2.989646 -7.725975 -0.818000 -5.771200 16.121900 7.510820 8.896524 6.446312 5.178010 4.819127 -0.923773 13.502600 -24.179278 15.490551 2.755900 -9.942300 12.196200 -75.505486 -34.753534 49.059250 132.449257 -53.286653 -96.482871 0.394732 -0.557937 -38.044313 -7.125000 0.000000 0.000000 47.667307 39.132890 10.585749 -24.033578 29.718330 -8.194857 -0.494159 -1.474041 38.311727 7.125000 0.000000 0.000000 
5.125318 17.901627 -4.801557 17.546738 49.001772 32.551442 -27.065580 -5.688481 -28.805761 -0.791953 5.647886 17.829740 1.631146 -9.506106 5.094742 0.885000 -5.996800 -16.775200 6.532158 2.246716 -38.758497 -3.728146 -13.032154 38.373815 -1.110897 2.764900 -8.180831 -0.882800 -5.989700 16.754500 7.492270 8.652689 6.357395 5.240916 4.697168 -1.008546 13.572861 -23.944407 15.280883 2.838600 -9.869200 12.049900 -75.503352 -34.540103 48.946486 132.304706 -53.344887 -96.388825 0.391042 -0.570678 -38.832246 -7.125000 0.000000 0.000000 47.342609 37.879661 10.318222 -24.896436 30.762880 -8.735956 -0.445203 -1.404206 37.923594 7.125000 0.000000 0.000000 
5.090999 17.905451 -4.785254 17.710299 49.464951 32.841214 -26.693776 -5.936488 -28.642101 -0.831532 5.548075 17.533834 1.646084 -9.501642 4.711755 0.972000 -6.276500 -17.588700 6.710838 2.207706 -38.799702 -3.685173 -12.987030 38.217561 -1.057121 2.380949 -8.519343 -0.874600 -5.962500 16.675500 7.431762 8.381447 6.266819 5.273469 4.545652 -1.008015 13.801786 -23.782787 15.090747 2.973300 -9.810100 11.976400 -75.373339 -34.364449 48.749271 132.333645 -53.325775 -96.424099 0.384395 -0.578190 -39.749720 -7.125000 0.000000 0.000000 49.054618 36.445550 10.009899 -26.399160 32.329849 -9.673806 -0.418112 -1.330625 38.861186 7.125000 0.000000 0.000000 
5.058492 17.914509 -4.768346 17.961353 49.902887 33.183010 -26.429822 -6.057191 -28.503691 -0.853615 5.496241 17.371648 1.613693 -9.128452 4.410088 1.026500 -6.445000 -18.081200 6.866301 2.043765 -38.827871 -3.636567 -12.936568 38.035957 -1.000750 2.019860 -8.742886 -0.856700 -5.902600 16.502000 7.370666 8.158676 6.241584 5.290434 4.424652 -0.943645 14.079362 -23.781215 15.010733 3.068400 -9.787700 12.033400 -75.278660 -34.337283 48.668961 132.455567 -53.258775 -96.526486 0.375859 -0.581450 -40.593716 -7.125000 0.000000 0.000000 49.734999 35.145641 9.595493 -27.660465 33.633062 -10.503565 -0.378018 -1.263602 38.915788 7.125000 0.000000 0.000000 
5.025180 17.929101 -4.754458 18.272153 50.346743 33.527630 -26.235991 -6.165311 -28.350847 -0.859595 5.487021 17.324265 1.521967 -8.302662 3.995427 1.023600 -6.436200 -18.055300 6.991725 1.836746 -38.810789 -3.581980 -12.876314 37.823336 -0.955030 1.724863 -8.923469 -0.903900 -6.058900 16.955500 7.351885 7.826117 6.234083 5.417176 4.254987 -0.899528 14.206313 -23.607510 15.064145 3.143800 -9.695600 12.108000 -75.219594 -34.226842 48.324772 132.560135 -53.202500 -96.617724 0.366861 -0.584952 -41.244455 -7.125000 0.000000 0.000000 49.657226 34.093488 9.494710 -28.696094 34.683548 -11.205839 -0.343479 -1.193704 38.440914 7.125000 0.000000 0.000000 
